<?xml version="1.0" encoding="utf-8"?>
<!-- Generator: Adobe Illustrator 16.0.0, SVG Export Plug-In . SVG Version: 6.00 Build 0)  -->
<!DOCTYPE svg PUBLIC "-//W3C//DTD SVG 1.1//EN" "http://www.w3.org/Graphics/SVG/1.1/DTD/svg11.dtd">
<svg version="1.1" id="Layer_1" xmlns="http://www.w3.org/2000/svg" xmlns:xlink="http://www.w3.org/1999/xlink" x="0px" y="0px"
	 width="1200px" height="1400px" viewBox="0 0 1200 1400" enable-background="new 0 0 1200 1400" xml:space="preserve">
<g>
	<g>
		<path fill-rule="evenodd" clip-rule="evenodd" fill="#05A451" d="M641.716,948.387c-4.853-1.56-8.218-4.734-11.77-7.505
			c-19.816-15.465-38.018-32.645-55.815-50.241c-26.786-26.482-52.192-54.162-74.804-84.138
			c-9.78-12.963-20.081-25.747-26.027-41.054c-7.672-19.745-7.45-39.311,2.864-58.099c16.348-29.782,35.086-58.151,55.134-85.678
			c26.029-35.74,54.71-69.372,85.639-101.191c32.411-33.347,67.105-64.274,103.724-93.168
			c45.925-36.237,94.365-68.962,144.912-98.774c33.172-19.564,66.19-39.379,99.281-59.075c1.683-1.001,3.409-1.929,5.979-3.379
			c-2.308,9.798-4.25,18.845-6.586,27.795c-5.026,19.263-4.589,38.038,4.37,56.267c5.022,10.22,12.973,18.296,20.371,26.75
			c22.574,25.798,44.956,51.746,66.082,78.696c0.794,1.014,1.455,2.128,2.497,3.666c-4.112,1.293-7.988,2.396-11.781,3.724
			c-21.824,7.636-41.663,18.944-60.997,31.227c-33.277,21.141-63.867,45.725-94.097,70.656
			c-21.223,17.502-47.62,18.673-69.472-3.637c-18.199-18.579-36.061-37.474-54.129-56.177c-1.81-1.873-2.171-2.963,0.037-5.037
			c13.732-12.891,28.124-25.042,42.703-37c2.578-2.115,3.941-1.046,5.719,0.811c8.481,8.858,17,17.684,25.572,26.458
			c10.861,11.118,25.563,15.263,38.922,2.819c2.866-2.67,6.047-5.025,9.123-7.476c17.068-13.593,34.002-27.396,54.348-36.318
			c3.909-1.715,8.016-3.006,12.277-4.584c-6.472-8.902-13.297-17.453-20.443-25.757c-8.408-9.771-16.815-19.543-25.41-29.155
			c-7.182-8.03-13.982-8.811-23.295-3.256c-27.206,16.23-52.267,35.305-77.173,54.634c-14.524,11.271-29.275,22.25-43.156,34.285
			c-25.411,22.034-49.402,45.468-72.279,69.975c-28.771,30.822-56.433,62.574-82.307,95.753
			c-21.358,27.389-41.23,55.797-60.018,84.922c-7.055,10.938-5.885,21.694,1.645,31.668c14.158,18.75,29.97,36.176,46.336,53.122
			c5.878,6.085,11.436,12.503,18.58,17.528c5.671-18.052,16.826-32.922,27.087-48.194c21.054-31.334,42.69-62.295,63.674-93.672
			c7.414-11.087,12.495-23.197,9.748-37.067c-1.963-9.911-9.065-16.673-15.309-23.936c-7.02-8.167-14.211-16.195-21.403-24.219
			c-2.345-2.615-2.922-4.589-0.339-7.837c14.121-17.753,28.857-34.991,44.142-51.795c1.304-1.433,2.276-3.286,4.568-0.808
			c20.296,21.947,41.362,43.346,57.834,68.274c10.701,16.195,15.54,34.192,11.21,53.653c-1.958,8.796-6.439,16.553-10.943,24.287
			c-23.539,40.437-48.732,79.917-72.969,119.948c-23.473,38.773-47.911,77.039-67.402,117.971
			C644.702,932.333,641.231,939.71,641.716,948.387z"/>
		<path fill-rule="evenodd" clip-rule="evenodd" fill="#05A451" d="M988.014,138.414c-7.871,3.657-15.748,7.302-23.613,10.973
			c-46.928,21.911-93.095,45.229-138.262,70.428c-37.239,20.776-74.275,41.893-110.568,64.191
			c-30.977,19.033-61.424,38.867-91.453,59.312c-45.115,30.716-89.143,62.843-131.986,96.484
			c-43.099,33.841-85.092,68.948-125.24,106.108c-7.561,6.999-15.306,13.808-22.823,20.849
			c-13.951,13.067-29.389,12.328-44.367,4.488c-15.514-8.121-27.07-20.682-38.093-33.625
			c-29.841-35.039-59.433-70.279-89.188-105.388c-8.86-10.454-17.804-20.857-28.068-30.069c-2.194-1.969-2.883-3.297-0.036-5.49
			c31.708-24.424,62.163-50.384,95.405-72.931c36.77-24.939,74.112-48.882,115.532-66.031c16.356-6.771,33.147-12.096,51.099-13.494
			c20.61-1.608,37.801,5.291,52.238,19.119c17.733,16.984,34.247,35.111,51.256,52.772c2.051,2.129,2.566,3.491-0.455,5.5
			c-15.88,10.553-31.74,21.148-47.288,32.155c-3.822,2.706-5.368,1.527-7.75-1.263c-7.63-8.937-15.515-17.631-24.157-25.707
			c-13.866-12.957-29.354-14.248-46.338-7.213c-19.433,8.047-37.695,18.182-55.142,29.714
			c-27.623,18.256-53.38,38.785-77.874,60.859c-2.356,2.124-2.948,3.19-0.623,5.992c16.559,19.958,32.866,40.115,49.225,60.229
			c9.328,11.469,20.141,12.71,32.238,2.81c17.001-13.917,33.401-28.531,50.412-42.436c48.419-39.577,99.382-75.882,151.257-111.002
			c28.035-18.98,55.793-38.347,84.237-56.755c37.69-24.393,75.589-48.443,115.59-69.172c10.642-5.515,11.59-10.015,4.594-19.523
			c-10.524-14.308-21.133-28.561-31.464-43c-2.244-3.138-3.764-3.294-6.937-1.208c-31.46,20.688-63.063,41.171-94.536,61.839
			c-6.313,4.146-12.488,8.561-18.32,13.325c-10.447,8.533-11.342,19.953-2.601,30.21c4.974,5.836,10.134,11.527,15.389,17.125
			c2.175,2.317,1.713,3.423-0.851,5.038c-15.023,9.455-29.943,19.065-44.881,28.649c-1.438,0.923-2.638,1.925-4.194,0.048
			c-14.542-17.539-31.883-32.979-42.187-53.689c-3.631-7.298-6.957-14.689-7.557-22.9c-1.063-14.531,6.584-24.789,17.429-33.511
			c28.718-23.094,60.379-42.022,91.607-61.563c29.419-18.409,58.527-37.269,86.758-57.375c4.795-3.417,9.229-7.389,13.426-11.496
			c2.577-2.521,3.693-2.394,5.817,0.488c14.211,19.274,28.622,38.408,42.964,57.59c9.456,12.649,18.563,25.565,28.447,37.887
			c11.333,14.129,26.509,18.89,44.324,14.448c27.157-6.771,54.561-12.287,82.283-16.313
			C937.612,142.269,962.699,140.12,988.014,138.414z"/>
		<path fill-rule="evenodd" clip-rule="evenodd" fill="#19359A" d="M459.283,800.107c-14.991,6.62-29.311,12.43-44.35,16.394
			c-21.827,5.753-43.825,6.578-65.883,1.469c-13.208-3.058-25.605-7.894-35.473-17.497c-11.887-11.572-15.561-25.934-14.772-41.721
			c1.057-21.157,9.162-40.263,18.899-58.734c17.268-32.757,39.897-61.951,64.294-89.882
			c51.896-59.416,110.449-112.134,171.892-161.947c61.512-49.868,125.755-96.14,192.739-138.771
			c57.481-36.584,116.804-70.213,176.552-103.12c28.976-15.958,58.272-31.365,87.495-46.892c8.127-4.319,16.509-8.182,24.783-12.237
			c0.843-0.412,1.65-1.205,2.987-0.354c-21.153,16.034-34.901,37.344-45.942,60.569c-0.998,2.098-2.735,3.127-4.641,4.138
			c-67.329,35.714-132.245,75.352-196.681,115.712c-26.398,16.535-51.694,34.75-77.349,52.399
			c-40.675,27.982-79.734,58.005-117.891,89.16c-22.602,18.454-44.394,37.769-65.792,57.532
			c-27.805,25.677-54.468,52.425-79.246,80.879c-27.254,31.299-52.672,63.9-70.521,101.438
			c-7.17,15.077-12.622,30.641-13.897,47.396c-0.584,7.683,0.041,15.196,2.337,22.526c5.42,17.307,19.316,27.615,38.673,28.961
			c15.825,1.102,31.023-1.756,45.938-6.643C454.937,800.392,456.374,799.259,459.283,800.107z"/>
	</g>
	<g>
		<path fill-rule="evenodd" clip-rule="evenodd" fill="#19359A" d="M1105.418,1283.021c-3.778,13.38-10.83,25.495-14.146,38.862
			c-0.856,3.441-3.523,2.142-5.105,2.108c-4.137-0.088-8.55,1.641-12.355-1.021c-0.571-0.4-0.138-2.153-0.183-3.281
			c-0.623-15.83-1.092-31.669-1.984-47.487c-0.214-3.804,0.83-5.057,4.521-4.537c0.65,0.091,1.343,0.104,1.986-0.004
			c4.072-0.696,5.254,0.737,5.15,4.879c-0.324,13.24-0.12,26.492-0.12,38.845c2.078-6.915,5.284-14.654,8.645-22.336
			c2.772-6.336,5.532-12.686,8.003-19.136c1.642-4.292,5.084-1.478,7.604-2.192c2.596-0.735,2.715,1.294,3.152,3.1
			c3.443,14.256,8.372,28.144,11.394,42.615c1.697-13.46,3.66-26.895,4.942-40.393c0.42-4.423,1.786-5.642,6.186-5.451
			c7.633,0.334,7.507,0.056,6.238,7.768c-2.47,14.992-4.866,29.997-7.046,45.03c-0.395,2.723-0.868,4.071-4.049,3.841
			c-4.123-0.3-9.083,1.22-12.21-0.533c-3.324-1.864-1.949-7.333-2.99-11.158C1110.392,1302.758,1106.802,1293.187,1105.418,1283.021
			z"/>
		<path fill-rule="evenodd" clip-rule="evenodd" fill="#19359A" d="M492.169,1315.16c-0.257,0.913-0.549,1.517-0.583,2.136
			c-0.323,5.887-0.846,6.445-6.959,6.434c-2.287-0.005-4.542,0.121-6.879-0.483c-5.935-1.531-10.897-3.896-12.299-10.393
			c-1.584-7.336-0.078-13.825,5.804-18.949c5.758-5.017,13.016-6.076,20.299-6.979c2.958-0.366,5.905-0.901,8.875-1.062
			c3.362-0.184,3.348-1.708,2.252-4.133c-1.618-3.582-4.543-4.966-8.333-4.994c-5.312-0.039-10.624-0.022-15.935-0.036
			c-3.355-0.009-8.344-4.679-8.368-7.781c-0.012-1.549,1.136-1.334,2.047-1.26c11.292,0.916,22.955-2.224,33.857,2.921
			c0.611,0.288,1.352,0.656,1.709-0.057c3.021-6.036,8.396-0.624,12.727-2.837c-8,9.856-4.717,21.081-5.749,31.584
			c-0.68,6.915-1.098,13.869-1.259,20.814c-0.069,3.002-1.009,3.784-4.027,3.766c-8.326-0.05-8.237,0.104-7.332-7.802
			c0.698-6.104,1.021-12.247,1.749-18.347c0.285-2.392-0.069-3.26-2.763-2.777c-5.536,0.993-11.132,1.659-16.675,2.617
			c-3.639,0.627-6.403,2.535-7.753,6.044c-1.287,3.344-1.58,6.852,1.009,9.537c2.43,2.519,5.953,3.307,9.483,2.566
			C488.664,1315.355,490.164,1314.796,492.169,1315.16z"/>
		<path fill-rule="evenodd" clip-rule="evenodd" fill="#19359A" d="M685.541,1267.859c10.636,0.109,20.555-0.693,30.383,0.662
			c8.002,1.104,13.121,7.103,14.748,15.609c1.335,6.978-0.068,13.854-0.29,20.771c-0.161,5.002-0.8,9.993-0.859,14.994
			c-0.037,3.079-0.97,4.133-4.293,4.078c-8.107-0.131-8.021,0.06-7.105-8.049c0.688-6.098,1.055-12.23,1.692-18.336
			c0.227-2.175-0.332-2.891-2.681-2.502c-5.88,0.971-11.807,1.666-17.69,2.606c-4.31,0.689-7.77,5.57-7.641,10.49
			c0.114,4.384,2.839,6.813,8.205,7.256c0.984,0.083,2.039-0.22,2.965,0.017c1.812,0.465,5.001-2.506,5.307,1.393
			c0.245,3.146,0.375,7.136-5.052,6.765c-1.812-0.126-3.648,0.14-5.467,0.079c-8.35-0.279-14.031-3.634-15.912-9.329
			c-2.476-7.488-0.037-15.89,5.896-20.68c5.938-4.793,13.166-5.755,20.414-6.708c2.627-0.344,5.254-0.882,7.89-0.939
			c4.676-0.104,3.769-2.49,2.312-5.027c-1.582-2.754-4.104-4.105-7.38-4.1c-4.81,0.012-9.656-0.376-14.418,0.082
			c-4.899,0.472-7.886-1.065-9.24-5.682C687.055,1270.4,686.448,1269.586,685.541,1267.859z"/>
		<path fill-rule="evenodd" clip-rule="evenodd" fill="#19359A" d="M84.455,1291.844c-3.154,4.284-3.92,9.762-10.553,8.588
			c-1.13-0.198-1.834,0.401-1.926,1.63c-0.262,3.544-0.585,7.083-0.865,10.624c-0.086,1.087,0.33,1.661,1.551,2.01
			c11.306,3.234,22.486-1.885,26.323-12.6c2.419-6.759,2.645-13.706-1.726-19.99c-5.19-7.465-15.892-7.725-21.437-0.449
			c-2.565,3.367-4.967,5.867-9.923,5.358c-5.372-0.553-5.535-0.314-2.988-4.896c9.324-16.776,33.689-19.792,44.653-5.525
			c8.486,11.043,5.111,30.689-6.846,40.314c-4.759,3.832-10.142,6.216-16.277,6.442c-7.286,0.269-14.591,0.023-21.884,0.177
			c-2.408,0.051-2.687-0.911-2.518-2.905c0.739-8.691,1.456-17.387,1.936-26.094c0.145-2.627,1.509-2.727,3.527-2.706
			C71.465,1291.883,77.429,1291.844,84.455,1291.844z"/>
		<path fill-rule="evenodd" clip-rule="evenodd" fill="#19359A" d="M199.315,1292.657c-1.9,6.05-5.414,9.294-12.022,8.047
			c-4.264-0.804-5.448,1.38-5.452,5.095c-0.004,4.36-0.283,8.723-0.514,13.081c-0.16,3.004-1.029,4.798-4.965,4.608
			c-7.718-0.373-7.673-0.086-6.901-7.786c0.838-8.363,1.386-16.757,2.354-25.104c2.338-20.157,15.49-25.214,31.925-22.513
			c8.719,1.433,13.277,6.984,14.925,15.973c1.311,7.15-0.264,14.178-0.475,21.26c-0.144,4.845-0.644,9.68-0.742,14.523
			c-0.053,2.645-0.92,3.947-3.784,3.55c-0.814-0.111-1.657-0.028-2.486-0.03c-6.071-0.009-6.041-0.006-5.411-6.102
			c1.045-10.111,2.866-20.19,2.074-30.406c-0.591-7.627-3.719-10.657-10.559-10.767c-7.036-0.112-12.412,4.141-13.379,10.586
			c-0.855,5.694-0.855,5.688,5.159,5.686c2.986-0.001,5.972,0.015,8.958,0.041C198.342,1292.401,198.664,1292.521,199.315,1292.657z
			"/>
		<path fill-rule="evenodd" clip-rule="evenodd" fill="#19359A" d="M409.864,1299.27c0.679-9.952,1.431-19.143,1.855-28.345
			c0.12-2.6,1-3.504,3.5-3.256c0.657,0.063,1.327,0.011,1.991,0.009c6.885-0.018,6.625-0.043,5.938,6.8
			c-1.016,10.122-2.792,20.208-2.123,30.446c0.406,6.212,4.118,9.892,10.131,10.064c7.892,0.228,13.822-3.678,14.33-9.843
			c0.899-10.914,1.768-21.839,2.135-32.775c0.131-3.893,1.295-4.907,5.114-4.804c7.665,0.205,7.613,0.009,6.949,7.244
			c-1.373,14.974-2.657,29.953-4.045,44.924c-0.142,1.535,0.761,4.261-2.193,3.856c-3.113-0.429-7.447,2.308-9.104-1.596
			c-1.028-2.422-2.261-1.1-2.804-0.909C421.546,1328.128,409.127,1319.307,409.864,1299.27z"/>
		<path fill-rule="evenodd" clip-rule="evenodd" fill="#19359A" d="M245.525,1267.503c3.648,0,7.303-0.141,10.943,0.026
			c11.073,0.508,17.429,6.103,19.042,16.765c0.409,2.703,0.703,5.479,0.555,8.195c-0.5,9.19-1.303,18.367-1.8,27.559
			c-0.13,2.404-0.723,3.727-3.426,3.308c-0.161-0.025-0.332,0.002-0.497,0.008c-8.357,0.233-8.244,0.245-7.363-7.723
			c0.852-7.705,1.47-15.435,2.121-23.158c0.245-2.906,0.059-5.81-0.681-8.657c-1.388-5.342-4.161-7.504-9.875-7.71
			c-13.284-0.479-13.307-0.479-14.229,12.328c-0.742,10.309-1.557,20.617-2.034,30.938c-0.144,3.096-0.895,4.146-4.263,4.077
			c-8.37-0.168-8.347,0.019-7.635-7.924c1.338-14.906,2.72-29.811,3.887-44.729c0.212-2.703,1.029-3.616,3.815-3.448
			c3.8,0.229,7.625,0.058,11.439,0.058C245.525,1267.444,245.525,1267.473,245.525,1267.503z"/>
		<path fill-rule="evenodd" clip-rule="evenodd" fill="#19359A" d="M785.218,1294.283c0.448-7.422,1.055-14.84,1.269-22.271
			c0.094-3.255,1.027-4.479,4.582-4.417c7.906,0.137,7.768-0.069,6.976,7.681c-1.014,9.954-2.876,19.882-1.831,29.942
			c0.709,6.83,3.983,9.742,10.503,9.775c7.844,0.039,13.136-3.87,13.687-10.438c0.918-10.95,1.796-21.91,2.345-32.883
			c0.157-3.127,0.965-4.445,4.231-4.047c1.472,0.179,3.001,0.2,4.472,0.024c3.027-0.363,4.039,0.567,3.726,3.715
			c-1.585,15.921-2.891,31.868-4.486,47.788c-0.154,1.531,0.957,4.794-2.178,4.382c-3.116-0.411-7.222,2.686-9.353-1.885
			c-0.894-1.92-1.722-0.6-2.566-0.189c-2.559,1.24-5.232,2.013-8.099,2.168c-14.372,0.769-22.159-5.692-23.441-19.675
			c-0.294-3.198-0.045-6.444-0.045-9.67C785.078,1294.284,785.148,1294.284,785.218,1294.283z"/>
		<path fill-rule="evenodd" clip-rule="evenodd" fill="#19359A" d="M1062.2,1290.883c-0.67,10.255-1.188,19.617-1.933,28.963
			c-0.332,4.164-3.154,5.207-9.915,4.19c-4.174-0.628-1.878-3.798-1.778-5.341c0.5-7.859,1.632-15.68,2.434-23.525
			c0.228-2.241,0.284-4.537,0.08-6.779c-0.751-8.239-4.014-11.536-11.071-11.433c-8.666,0.13-13.089,3.977-13.651,11.988
			c-0.722,10.322-1.535,20.642-1.975,30.976c-0.144,3.402-1.233,4.319-4.672,4.217c-7.856-0.236-7.935-0.055-7.276-7.748
			c1.267-14.819,2.771-29.621,3.831-44.453c0.241-3.389,1.553-4.542,4.443-3.591c2.423,0.799,6.972-3.022,7.254,3.043
			c0.047,1.021,1.686-0.089,2.555-0.26c2.635-0.521,4.421-2.759,7.452-2.872C1054.347,1267.646,1062.338,1275.289,1062.2,1290.883z"
			/>
		<path fill-rule="evenodd" clip-rule="evenodd" fill="#19359A" d="M860.803,1267.787c6.172,0.5,13.579-0.896,20.549,3.168
			c6.338,3.695,8.166,9.252,8.966,15.58c0.833,6.57-0.269,13.121-0.608,19.676c-0.226,4.356-0.796,8.713-0.719,13.062
			c0.064,3.518-0.951,4.739-4.769,4.592c-7.723-0.302-7.497-0.05-6.78-7.495c0.971-10.106,3.02-20.176,1.803-30.402
			c-0.755-6.359-3.829-9.148-10.343-9.502c-1.984-0.107-3.979-0.04-5.972-0.043c-7.229-0.012-7.242-0.012-7.703,6.857
			c-0.812,12.089-1.724,24.174-2.327,36.271c-0.163,3.254-1.041,4.385-4.566,4.291c-8.117-0.217-8.09-0.017-7.386-7.752
			c1.362-14.966,2.767-29.928,3.943-44.907c0.217-2.753,1.123-3.593,3.85-3.445C852.376,1267.938,856.036,1267.787,860.803,1267.787
			z"/>
		<path fill-rule="evenodd" clip-rule="evenodd" fill="#19359A" d="M575.383,1318.321c1.133-15.726,2.319-31.021,3.266-46.331
			c0.185-2.988,0.861-4.106,4.234-4.033c8.411,0.186,8.437-0.01,7.486,7.968c-1.18,9.901-1.695,19.858-3.043,29.759
			c-0.951,6.986,8.76,11.26,14.606,9.84c5.635-1.368,9.044-4.869,10.295-10.461c2.306-10.322,2.252-20.84,2.974-31.297
			c0.132-1.904-1.195-4.938,1.52-5.502c3.149-0.656,6.584-0.171,9.874,0.071c0.982,0.073,0.613,1.324,0.512,2.066
			c-1.606,11.831-1.104,23.923-4.154,35.559c-4.014,15.309-19.001,22.147-33.866,15.771c-0.838-0.359-1.657-1.933-2.66,0.069
			c-2.358,4.71-6.786,1.951-9.932,1.777C573.353,1323.401,576.225,1319.798,575.383,1318.321z"/>
		<path fill-rule="evenodd" clip-rule="evenodd" fill="#19359A" d="M390,1323.704c-17.986-0.015-25.825-8.136-24.606-25.447
			c0.624-8.858,1.313-17.717,1.701-26.587c0.132-3.033,0.885-4.533,4.283-4.024c1.618,0.243,3.309,0.072,4.964,0.019
			c1.978-0.064,3.036,0.392,2.774,2.736c-0.952,8.502-1.627,17.035-2.583,25.536c-0.481,4.277-0.445,8.451,0.683,12.638
			c0.877,3.254,3.241,5.155,6.183,6.117c1.978,0.646,4.136,1.186,4.592-2.669c1.481-12.506,2.363-25.032,2.986-37.595
			c0.397-8.007-1.107-6.544,7.425-6.753c0.662-0.017,1.334,0.091,1.986,0.016c2.528-0.295,3.487,0.471,3.216,3.197
			c-1.564,15.743-3.16,31.489-4.266,47.266c-0.321,4.567-1.665,6.439-6.359,5.58C392.019,1323.558,390.995,1323.707,390,1323.704z"
			/>
		<path fill-rule="evenodd" clip-rule="evenodd" fill="#19359A" d="M758.996,1277.078c2.863-2.564,5.394-4.64,7.121-7.483
			c0.949-1.563,10.752-2.954,12.524-1.897c1.619,0.965,0.527,2.279-0.216,2.697c-6.341,3.568-4.483,8.236-3.29,13.887
			c1.669,7.909,0.259,16.109-2.468,23.87c-3.609,10.282-11.376,15.14-22.233,15.48c-4.094,0.128-9.347,1.738-12.005-0.665
			c-2.555-2.312-0.113-7.31,0.116-11.111c0.821-13.551,2.024-27.08,2.773-40.634c0.173-3.143,1.288-3.614,4.146-3.601
			c8.63,0.04,8.487-0.1,7.686,8.059c-1.204,12.225-2.124,24.475-3.306,36.701c-0.226,2.339,0.615,2.906,2.717,2.537
			c4.409-0.771,7.627-2.992,9.166-7.221c2.706-7.445,3.253-15.157,2.662-22.941C764.137,1281.429,762.42,1278.646,758.996,1277.078z
			"/>
		<path fill-rule="evenodd" clip-rule="evenodd" fill="#19359A" d="M957.938,1268.078c13.971-0.368,23.084,5.172,26.413,15.876
			c3.948,12.693-1.986,28.065-13.332,35.432c-7.729,5.017-16.346,4.636-24.961,4.721c-1.691,0.017-2.174-0.766-2.319-2.362
			c-1.109-12.238-2.808-24.405-5.174-36.476c-0.31-1.581-0.288-2.204,1.586-2.595c8.804-1.838,9.703-1.211,10.487,7.432
			c0.626,6.92,1.623,13.813,2.096,20.74c0.224,3.297,1.867,4.093,4.761,4.003c5.304-0.164,9.114-2.933,11.912-6.942
			c4-5.736,5.255-12.188,3.798-18.984c-1.757-8.189-6.791-12.376-15.375-11.914c-4.935,0.266-7.111-1.48-8.376-5.811
			c-0.67-2.289-0.858-3.323,2.02-3.146C953.621,1268.186,955.783,1268.078,957.938,1268.078z"/>
		<path fill-rule="evenodd" clip-rule="evenodd" fill="#19359A" d="M132.566,1323.618c-8.93-0.05-8.876-0.057-9.924-8.501
			c-1.212-9.773-2.292-19.575-4.525-29.192c-0.662-2.853-0.232-3.954,3.158-4.067c8.131-0.271,8.022-0.459,8.678,7.316
			c0.583,6.918,1.5,13.809,2.123,20.725c0.288,3.195,1.727,4.555,5.086,4.233c2.191-0.211,4.208-0.674,6.108-1.752
			c10.77-6.115,13.183-23.835,4.631-32.657c-3.554-3.668-7.881-3.566-12.372-3.543c-3.558,0.017-7.783-4.407-7.358-7.62
			c0.191-1.451,1.331-1.163,2.248-1.16c4.808,0.011,9.66-0.336,14.414,0.175c13.271,1.426,21.764,13.482,19.746,28.215
			c-2.09,15.258-11.032,23.127-24.638,27.723C137.736,1324.256,135.037,1323.618,132.566,1323.618z"/>
		<path fill-rule="evenodd" clip-rule="evenodd" fill="#19359A" d="M541.744,1267.762c14.021-0.127,22.671,4.361,26.249,14.82
			c5.99,17.52-4.837,37.068-22.447,40.589c-5.097,1.02-10.809,2.098-15.231,0.426c-5.427-2.052-2.923-8.751-3.603-13.216
			c-1.237-8.129-2.244-16.31-3.895-24.375c-0.533-2.603-0.164-3.278,2.581-3.561c8.348-0.858,8.53-1.003,9.196,7.131
			c0.605,7.383,2.395,14.678,1.797,22.158c-0.157,1.972,0.856,2.721,2.957,2.948c6.87,0.743,11.49-2.583,14.829-7.791
			c3.86-6.02,4.811-12.679,2.913-19.571c-2.032-7.385-7.103-10.568-16.135-10.698c-2.018-0.028-4.417,1.253-5.873-1.935
			C531.96,1267.855,531.837,1267.854,541.744,1267.762z"/>
		<path fill-rule="evenodd" clip-rule="evenodd" fill="#19359A" d="M925.2,1267.719c2.506,0,4.074-0.282,5.474,0.068
			c1.889,0.478,5.786-1.645,5.312,1.418c-0.41,2.644-0.778,7.49-6.276,7.14c-4.125-0.262-8.301-0.178-12.426,0.125
			c-3.137,0.232-6.525,0.815-7.335,4.581c-0.831,3.867,2.151,5.429,5.029,6.827c3.405,1.653,6.972,3.013,10.297,4.798
			c7.033,3.777,9.717,8.958,8.76,16.393c-0.94,7.3-5.544,11.369-12.467,13.457c-7.981,2.406-16.13,0.918-24.206,1.102
			c-1.162,0.024-2.078-0.848-2.201-1.648c-0.432-2.807,0.862-5.422,1.972-7.832c1.103-2.396,3.282-0.254,4.767,0.09
			c4.946,1.143,9.901,1.121,14.828,0.482c2.763-0.357,5.602-1.363,6.137-4.738c0.5-3.149-1.099-5.289-3.796-6.718
			c-4.066-2.156-8.303-4.034-12.252-6.373c-6.801-4.026-9.334-9.729-7.841-16.758c1.122-5.29,7.315-10.505,13.854-11.638
			C917.258,1267.729,921.733,1267.644,925.2,1267.719z"/>
		<path fill-rule="evenodd" clip-rule="evenodd" fill="#19359A" d="M360.658,1267.668c-3.253,8.48-3.253,8.457-11.519,8.5
			c-3.146,0.016-6.33-0.101-9.425,0.331c-2.609,0.364-5.242,1.278-5.752,4.477c-0.5,3.136,1.436,4.819,3.935,6.044
			c3.692,1.811,7.502,3.396,11.162,5.263c6.702,3.419,9.957,8.7,9.024,16.242c-0.836,6.756-4.89,11.284-12.386,13.472
			c-7.993,2.333-16.04,1.831-24.122,0.476c-2.316-0.387-3.546-1.552-2.135-3.513c1.405-1.954-0.592-6.848,4.474-5.681
			c5.884,1.355,11.706,2.181,17.68,0.825c2.513-0.571,4.844-1.436,5.369-4.303c0.491-2.688-0.641-4.886-2.941-6.203
			c-4.982-2.858-10.343-5.142-15.11-8.289c-8.476-5.599-8.131-18.061,0.317-23.804c3.67-2.496,7.857-3.575,12.167-3.768
			C347.665,1267.462,353.957,1267.668,360.658,1267.668z"/>
		<path fill-rule="evenodd" clip-rule="evenodd" fill="#19359A" d="M633.04,1323.75c4-9.044,4-9.044,12.955-8.936
			c8.633,0.102,14.248-3.418,17.408-10.912c3.521-8.354,2.072-18.669-3.351-23.628c-2.396-2.188-5.244-3.351-8.556-3.343
			c-4.15,0.009-8.305-0.105-12.444,0.084c-2.182,0.1-3.186-0.684-4.038-2.582c-2.934-6.527-3.014-6.547,4.293-6.516
			c5.306,0.022,10.619,0.059,15.916,0.357c10.833,0.613,19.354,7.586,21.216,17.843c4.016,22.139-12.941,39.351-31.044,37.685
			C641.451,1323.439,637.443,1323.75,633.04,1323.75z"/>
		<path fill-rule="evenodd" clip-rule="evenodd" fill="#19359A" d="M287.827,1267.594c7.881-0.426,15.562,0.186,21.416,6.701
			c3.255,3.625,4.393,8.006,4.616,12.479c0.581,11.631-1.454,23.174-1.724,34.787c-0.031,1.348-0.598,1.871-2.035,2.125
			c-8.258,1.459-9.844,0.078-9.113-7.887c0.782-8.516,1.794-17.034,2.027-25.568c0.297-10.879-2.964-13.804-13.964-13.811
			c-2.154-0.002-4.321-0.152-6.458,0.036c-1.936,0.173-3.012-0.271-3.677-2.224c-2.584-7.586-3.655-6.688,4.257-6.641
			C284.665,1267.602,286.155,1267.594,287.827,1267.594z"/>
		<path fill-rule="evenodd" clip-rule="evenodd" fill="#19359A" d="M997.585,1323.987c-7.517,0.04-7.352,0.058-6.589-6.423
			c1.75-14.887,3.191-29.813,3.515-44.794c0.091-4.249,1.185-5.519,5.584-5.282c7.273,0.392,7.215,0.096,6.522,7.462
			c-1.343,14.276-2.903,28.549-3.195,42.895C1003.326,1322.448,1002.604,1325.629,997.585,1323.987z"/>
		<path fill-rule="evenodd" clip-rule="evenodd" fill="#19359A" d="M234.336,1248.395c-1.376,5.511-4.001,8.011-9.522,7.328
			c-4.157-0.512-8.1-0.068-10.399,4.576c-1.25,2.524-4.636,1.756-6.795,1.143c-2.289-0.652-0.977-3.089-0.646-4.619
			c1.15-5.323,4.774-8.216,10.577-8.392C222.986,1248.266,228.432,1248.395,234.336,1248.395z"/>
		<path fill-rule="evenodd" clip-rule="evenodd" fill="#19359A" d="M913.727,1338.592c2.282-9.047,4.715-10.495,13.346-8.908
			c1.92,0.354,1.947,1.245,1.786,2.65c-0.568,4.959-1.105,9.921-1.641,14.884c-0.479,4.442-3.992,2.142-6.162,2.501
			c-3.194,0.529-2.144-1.932-2.175-3.527c-0.01-0.481,0-0.977,0.097-1.445C919.816,1340.669,921.044,1336.336,913.727,1338.592z"/>
		<path fill-rule="evenodd" clip-rule="evenodd" fill="#19359A" d="M513.269,1258.025c0.378-3.213,0.846-5.442,0.851-7.673
			c0.006-2.653,1.05-3.353,3.776-3.538c4.401-0.297,6.044,0.814,4.811,5.274c-0.586,2.121-0.458,4.466-0.421,6.706
			c0.043,2.537-0.721,3.563-3.648,3.717C514.201,1262.744,511.858,1261.888,513.269,1258.025z"/>
	</g>
	<g>
		<path fill-rule="evenodd" clip-rule="evenodd" fill="#19359A" d="M651.81,1112.688c0.72,33.466,1.342,66.934,2.273,100.392
			c0.125,4.493-1.297,5.246-5.506,5.23c-8.218-0.029-16.212-0.759-23.93-3.653c-16.573-6.219-26.521-19.405-26.494-36.759
			c0.038-23.768,0.645-47.534,1.192-71.297c0.45-19.536,1.188-39.064,1.72-58.598c0.04-1.436,1.277-3.701-0.98-4.184
			c-2.228-0.475-2.211,1.989-2.689,3.378c-13.9,40.393-33.669,78.131-54.192,115.606c-9.383,17.133-19.177,34.234-24.888,53.063
			c-0.493,1.627-1.209,2.389-3.069,2.38c-12.948-0.067-25.896-0.055-38.844-0.027c-1.683,0.004-2.603-0.239-2.917-2.259
			c-3.405-21.857-11.726-42.332-18.935-63.114c-10.183-29.351-21.323-58.425-27.092-89.046c-1.017-5.396-1.724-10.849-2.683-16.258
			c-0.25-1.414,0.33-3.811-2.135-3.6c-1.858,0.156-1.433,2.263-1.616,3.623c-1.926,14.255-3.707,28.528-5.748,42.767
			c-3.673,25.63-7.338,51.262-11.316,76.847c-2.458,15.811-4.464,31.662-5.872,47.585c-0.276,3.124-1.707,3.534-4.47,3.513
			c-14.772-0.115-29.55-0.22-44.319,0.049c-4.254,0.078-4.553-1.319-3.752-4.729c7.028-29.907,13.927-59.842,20.909-89.76
			c6.941-29.742,14.113-59.434,19.986-89.399c1.536-7.833,2.917-15.695,4.331-23.551c0.457-2.541,1.609-3.719,4.569-3.704
			c23.073,0.116,46.147,0.051,69.221,0.081c1.636,0.004,3.63-0.729,3.642,2.385c0.059,14.455,4.149,28.26,7.699,42.12
			c6.942,27.101,16.683,53.442,23.176,80.669c2.479,10.399,4.787,20.813,5.307,31.521c0.042,0.862-0.549,2.111,0.877,2.406
			c1.615,0.335,1.857-0.92,2.133-2.053c6.638-27.346,20.869-51.544,33.553-76.355c10.115-19.785,20.593-39.391,28.825-60.026
			c1.14-2.859,2.041-5.809,3.186-8.665c1.477-3.685,0.664-9.155,3.865-10.903c3.153-1.723,8.07-0.379,12.212-0.38
			c19.754-0.007,39.51,0.09,59.261-0.12c3.418-0.036,4.12,0.706,3.931,3.955C650.265,1045.43,651.126,1079.062,651.81,1112.688z"/>
		<path fill-rule="evenodd" clip-rule="evenodd" fill="#19359A" d="M281.7,1101.105c3.464,0.716,6.932,1.415,10.392,2.15
			c11.317,2.406,21.758,6.742,31.146,13.415c15.62,11.103,17.45,28.552,14.031,44.351c-5.386,24.887-23.793,37.285-46.399,45.295
			c-25.436,9.011-52.076,11.187-78.839,11.455c-25.051,0.25-50.112-0.482-75.169-0.699c-2.786-0.025-4.146-0.253-3.604-3.702
			c3.333-21.246,5.556-42.632,7.532-64.026c3.086-33.408,5.991-66.836,7.811-100.337c0.702-12.914,1.085-25.846,1.372-38.774
			c0.065-2.939,0.798-3.811,3.908-3.802c40.664,0.105,81.332-0.208,121.991,0.231c13.704,0.148,26.863,3.954,38.786,10.901
			c21.529,12.545,20.454,35.503,12.604,51.632c-7.102,14.592-20.25,22.138-35.185,27.32c-3.481,1.209-7,2.318-10.5,3.472
			C281.617,1100.36,281.658,1100.732,281.7,1101.105z M190.563,1163.103c0,6.142,0.291,12.303-0.105,18.421
			c-0.25,3.854,1.14,5.119,4.869,5.299c15.773,0.762,31.516,0.642,47.198-1.291c8.742-1.08,17.335-2.867,25.335-6.648
			c16.704-7.893,22.097-29.097,10.41-41.377c-5.734-6.026-13.431-8.764-21.388-10.696c-10.017-2.433-20.375-2.595-30.542-4.047
			c-14.105-2.015-20.335-9.419-19.708-23.124c0.168-3.674,1.449-5.538,5.609-5.439c8.296,0.197,16.582-0.322,24.806-1.477
			c10.242-1.438,20.24-3.655,28.922-9.555c9.169-6.229,13.126-16.385,10.716-27.228c-1.824-8.209-10.498-16.731-18.535-18.24
			c-18.791-3.526-37.603-2.507-56.439-0.386c-2.505,0.281-3.29,1.112-3.325,3.592c-0.408,28.896-2.311,57.688-5.234,86.464
			C191.953,1139.186,191.15,1151.158,190.563,1163.103z"/>
		<path fill-rule="evenodd" clip-rule="evenodd" fill="#19359A" d="M962.122,1006.532c11.285,0,22.572,0.016,33.857-0.015
			c2.064-0.006,3.58-0.097,4.231,2.673c6.646,28.218,16.922,55.354,26.348,82.737c9.415,27.364,19.179,54.613,28.413,82.033
			c4.251,12.625,8.725,25.213,11.579,38.263c0.761,3.469,0.34,4.857-3.829,4.804c-10.953-0.14-21.917,0.264-32.552-2.995
			c-17.635-5.403-30.177-15.514-33.957-34.12c-1.317-6.479-3.67-12.755-5.064-19.222c-0.79-3.657-2.594-4.462-6.133-4.408
			c-12.445,0.183-24.896,0.183-37.341,0.004c-13.213-0.193-22.729-7.271-25.27-18.429c-0.143-0.629-0.257-1.266-0.332-1.905
			c-1.198-10.174-0.854-10.559,9.583-10.563c15.27-0.006,30.54-0.121,45.806,0.082c3.837,0.052,4.742-0.342,3.433-4.355
			c-8.123-24.907-16.371-49.782-23.232-75.061c-0.755-2.778-1.276-5.615-1.889-8.429c-0.235-1.084-0.194-2.392-1.745-2.522
			c-1.485-0.126-1.782,0.985-2.229,2.107c-9.28,23.362-21.155,45.585-31.879,68.311c-14.411,30.542-27.334,61.681-40.295,92.808
			c-2.048,4.92-3.684,10.061-4.885,15.234c-0.672,2.9-1.882,3.463-4.626,3.444c-17.26-0.114-34.522-0.212-51.78,0.031
			c-4.666,0.065-4.443-1.404-2.907-4.644c9.733-20.519,20.944-40.292,31.835-60.227c23.585-43.169,48.575-85.617,70.35-129.717
			c1.995-4.041,3.929-8.158,5.333-12.413c1.031-3.129,2.806-3.655,5.817-3.61c11.118,0.164,22.239,0.065,33.359,0.065
			C962.122,1006.508,962.122,1006.52,962.122,1006.532z"/>
		<path fill-rule="evenodd" clip-rule="evenodd" fill="#19359A" d="M787.897,1007.981c35.683,0,71.365,0.101,107.046-0.116
			c4.959-0.029,4.6,1.521,3.305,4.962c-6.019,16.004-21.269,26.046-41.944,26.348c-16.247,0.238-32.515-0.377-48.762-0.933
			c-4.497-0.153-5.991,0.774-6.423,5.552c-4.301,47.66-8.4,95.329-10.72,143.13c-0.431,8.879-1.05,17.753-1.31,26.637
			c-0.08,2.778-0.965,3.463-3.732,3.443c-16.264-0.116-32.528-0.073-48.793,0.003c-2.66,0.012-3.674-0.338-3.293-3.504
			c2.896-24.067,5.835-48.139,8.141-72.264c3.103-32.482,5.623-65.015,7.611-97.587c0.283-4.666-1.177-5.565-5.575-5.379
			c-22.517,0.958-45.048,1.597-67.567,2.512c-2.852,0.117-4.328,0.073-3.821-3.337c1.26-8.47,2.346-16.966,3.308-25.472
			c0.356-3.154,1.553-4.14,4.985-4.126c35.849,0.155,71.697,0.097,107.545,0.097
			C787.897,1007.959,787.897,1007.971,787.897,1007.981z"/>
	</g>
</g>
</svg>
